<svg xmlns="http://www.w3.org/2000/svg" viewBox="0 0 1200 630" preserveAspectRatio="xMidYMid slice">
  <defs>
    <linearGradient id="bg5" x1="0" y1="0" x2="1" y2="1">
      <stop offset="0" stop-color="#142347"/>
      <stop offset="1" stop-color="#1F3864"/>
    </linearGradient>
  </defs>
  <rect width="1200" height="630" fill="url(#bg5)"/>
  <g stroke="#4FB3D9" stroke-width="1.2" fill="none" opacity="0.45">
    <line x1="100" y1="120" x2="350" y2="230"/>
    <line x1="350" y1="230" x2="180" y2="420"/>
    <line x1="350" y1="230" x2="560" y2="110"/>
    <line x1="560" y1="110" x2="770" y2="220"/>
    <line x1="770" y1="220" x2="950" y2="140"/>
    <line x1="770" y1="220" x2="1080" y2="380"/>
    <line x1="180" y1="420" x2="420" y2="530"/>
    <line x1="420" y1="530" x2="720" y2="490"/>
    <line x1="720" y1="490" x2="1080" y2="380"/>
    <line x1="950" y1="140" x2="1080" y2="380"/>
    <line x1="560" y1="110" x2="420" y2="530"/>
  </g>
  <g fill="#4FB3D9">
    <circle cx="100" cy="120" r="5"/>
    <circle cx="350" cy="230" r="6"/>
    <circle cx="560" cy="110" r="5"/>
    <circle cx="770" cy="220" r="6"/>
    <circle cx="950" cy="140" r="5"/>
    <circle cx="180" cy="420" r="5"/>
    <circle cx="420" cy="530" r="6"/>
    <circle cx="720" cy="490" r="5"/>
    <circle cx="1080" cy="380" r="6"/>
  </g>
  <text x="600" y="335" font-family="-apple-system,Segoe UI,Arial,sans-serif" font-weight="900" font-size="200" text-anchor="middle" fill="#FFFFFF" letter-spacing="6">GAIN</text>
  <text x="600" y="405" font-family="-apple-system,Segoe UI,Arial,sans-serif" font-weight="500" font-size="30" text-anchor="middle" fill="#4FB3D9" letter-spacing="6">GOVERNANCE · FOR AI · NAVIGATED</text>
</svg>
